<svg width="735" height="742" viewBox="0 0 735 742" fill="none" xmlns="http://www.w3.org/2000/svg">
<path d="M694.884 0.117676C675.115 0.117676 658.987 15.7038 658.987 35.4463C658.987 55.1887 675.115 71.2944 694.884 71.2944C714.653 71.2944 730.781 55.1887 730.781 35.4463C730.781 15.7038 714.653 0.117676 694.884 0.117676ZM694.884 64.0208C679.277 64.0208 666.271 51.0324 666.271 35.4463C666.271 19.8601 679.277 7.39121 694.884 7.39121C710.491 7.39121 723.497 19.8601 723.497 35.4463C723.497 51.0324 710.491 64.0208 694.884 64.0208Z" fill="#6563ED"/>
<path d="M702.686 39.5977C702.686 39.5977 704.767 38.0391 705.808 37C706.848 34.9219 707.889 32.3242 707.889 29.2069C707.889 27.6483 707.369 25.5702 706.848 24.0116C706.328 22.453 705.288 20.8943 703.727 19.8553C702.166 18.8162 700.605 17.7771 698.524 17.7771H696.964L695.923 17.2576H681.356V53.6252H687.599V41.1563H695.923L701.646 53.6252H709.449L702.686 39.5977ZM700.605 31.8046C700.605 31.8046 700.085 32.8437 699.565 33.3633C699.045 33.8828 698.524 34.4023 697.484 34.4023C697.484 34.4023 697.137 34.5755 696.443 34.9219H687.599V24.0116H697.484C697.484 24.0116 699.045 24.5311 699.565 25.0506C700.085 25.5702 700.605 26.0897 700.605 27.1288C701.126 27.6483 701.126 28.6874 701.126 29.2069C701.126 30.246 701.126 30.7656 700.605 31.8046Z" fill="#6563ED"/>
<path d="M134.678 290.215L0.144531 212.342L366.042 0.117065L733.436 210.935L640.033 265.703L366.042 108.797L187.806 212.342L228.937 235.447L366.042 155.863L734.856 369.064L641.454 422.976L366.042 264.542L187.806 368.088L465.442 528.112L371.183 582.88L0.144531 368.088L134.678 290.215Z" fill="#6563ED"/>
<path d="M734.512 528.969L366.901 741.193L1.2207 527.044L94.623 473.132H95.4799L366.901 633.37L547.707 528.969L271.785 368.944L365.187 315.032L734.512 528.969Z" fill="#6563ED"/>
</svg>
