<svg width="735" height="742" viewBox="0 0 735 742" fill="none" xmlns="http://www.w3.org/2000/svg">
<path d="M694.883 0.117676C675.114 0.117676 658.987 15.7038 658.987 35.4463C658.987 55.1887 675.114 71.2944 694.883 71.2944C714.653 71.2944 730.78 55.1887 730.78 35.4463C730.78 15.7038 714.653 0.117676 694.883 0.117676ZM694.883 64.0208C679.276 64.0208 666.27 51.0324 666.27 35.4463C666.27 19.8601 679.276 7.39121 694.883 7.39121C710.491 7.39121 723.497 19.8601 723.497 35.4463C723.497 51.0324 710.491 64.0208 694.883 64.0208Z" fill="#D24141"/>
<path d="M702.686 39.5977C702.686 39.5977 704.767 38.0391 705.807 37C706.848 34.9219 707.888 32.3242 707.888 29.2069C707.888 27.6483 707.368 25.5702 706.848 24.0116C706.328 22.453 705.287 20.8943 703.726 19.8553C702.166 18.8162 700.605 17.7771 698.524 17.7771H696.963L695.923 17.2576H681.356V53.6252H687.599V41.1563H695.923L701.645 53.6252H709.449L702.686 39.5977ZM700.605 31.8046C700.605 31.8046 700.085 32.8437 699.564 33.3633C699.044 33.8828 698.524 34.4023 697.483 34.4023C697.483 34.4023 697.137 34.5755 696.443 34.9219H687.599V24.0116H697.483C697.483 24.0116 699.044 24.5311 699.564 25.0506C700.085 25.5702 700.605 26.0897 700.605 27.1288C701.125 27.6483 701.125 28.6874 701.125 29.2069C701.125 30.246 701.125 30.7656 700.605 31.8046Z" fill="#D24141"/>
<path d="M134.678 290.215L0.144043 212.342L366.041 0.117065L733.435 210.935L640.033 265.703L366.041 108.797L187.806 212.342L228.937 235.447L366.041 155.863L734.856 369.064L641.454 422.976L366.041 264.542L187.806 368.088L465.442 528.112L371.183 582.88L0.144043 368.088L134.678 290.215Z" fill="#D24141"/>
<path d="M734.511 528.969L366.9 741.193L1.22021 527.044L94.6226 473.132H95.4795L366.9 633.37L547.707 528.969L271.784 368.944L365.187 315.032L734.511 528.969Z" fill="#D24141"/>
</svg>
