<svg width="2385" height="451" viewBox="0 0 2385 451" fill="none" xmlns="http://www.w3.org/2000/svg">
<path d="M557.692 258.271L588.865 246.338C595.1 269.167 613.284 282.656 638.741 282.656C664.199 282.656 679.266 270.723 679.266 252.045C679.266 199.123 567.564 221.952 567.564 146.72C567.564 112.476 593.541 88.0907 638.222 88.0907C676.148 88.0907 701.086 106.25 709.399 134.787L678.227 146.72C671.992 125.966 658.484 116.627 636.663 116.627C613.284 116.627 600.295 128.042 600.295 144.126C600.295 194.453 712.516 170.068 712.516 251.007C712.516 287.326 682.902 311.193 635.624 311.193C596.139 311.193 567.044 291.996 557.692 258.271Z" fill="white"/>
<path d="M908.903 226.104C908.903 274.875 874.614 311.713 827.855 311.713C803.956 311.713 785.252 302.374 772.263 286.29V363.597H739.013V144.127H769.666V170.069C782.654 151.909 802.917 141.014 828.374 141.014C875.653 141.014 908.903 177.852 908.903 226.623V226.104ZM876.172 226.104C876.172 193.417 853.832 169.55 823.698 169.55C793.565 169.55 770.705 192.898 770.705 226.104C770.705 259.31 792.006 282.658 823.698 282.658C855.39 282.658 876.172 258.791 876.172 226.104Z" fill="white"/>
<path d="M927.088 226.101C927.088 176.811 962.936 140.492 1013.33 140.492C1063.73 140.492 1100.1 176.811 1100.1 226.101C1100.1 275.391 1064.25 311.71 1013.33 311.71C962.417 311.71 927.088 274.872 927.088 226.101ZM1066.85 226.101C1066.85 192.895 1045.54 169.547 1013.33 169.547C981.12 169.547 959.819 192.895 959.819 226.101C959.819 259.307 981.64 282.136 1013.33 282.136C1045.02 282.136 1066.85 258.788 1066.85 226.101Z" fill="white"/>
<path d="M1136.46 250.485V172.139H1107.37V143.603H1123.48C1133.87 143.603 1138.54 138.415 1138.54 127.519V101.058H1170.75V143.603H1216.47V172.139H1169.2V247.372C1169.2 268.125 1180.11 279.021 1199.85 279.021H1218.03V308.076H1193.09C1156.21 308.076 1136.46 285.766 1136.46 251.003V250.485Z" fill="white"/>
<path d="M1294.41 200.161C1294.41 134.268 1341.17 88.0907 1402.99 88.0907C1456.5 88.0907 1489.24 119.74 1502.22 157.616L1470.53 170.587C1460.66 139.456 1438.32 119.74 1402.47 119.74C1359.35 119.74 1328.18 152.427 1328.18 200.161C1328.18 247.894 1359.87 280.581 1403.51 280.581C1438.84 280.581 1460.66 261.384 1470.53 229.735L1502.22 242.706C1489.24 281.619 1456.5 312.23 1403.51 312.23C1340.65 312.23 1294.41 266.054 1294.41 200.679V200.161Z" fill="white"/>
<path d="M1686.66 144.124V308.078H1656.01V281.099C1643.54 300.296 1623.8 311.71 1597.82 311.71C1550.54 311.71 1516.77 274.872 1516.77 226.101C1516.77 177.33 1551.06 142.568 1597.82 142.568C1623.28 142.568 1643.54 152.945 1656.01 171.623V144.124H1686.66ZM1654.45 225.582C1654.45 192.377 1633.15 169.029 1601.97 169.029C1571.84 169.029 1549.5 193.414 1549.5 225.582C1549.5 257.751 1571.84 282.136 1601.97 282.136C1632.11 282.136 1654.45 258.788 1654.45 225.582Z" fill="white"/>
<path d="M1874.73 206.904V308.078H1842V213.13C1842 186.15 1825.9 170.066 1799.4 170.066C1774.98 170.066 1756.8 188.226 1756.28 208.46V308.078H1723.03V144.124H1754.2V164.878C1765.63 150.35 1784.33 140.492 1808.23 140.492C1849.28 140.492 1874.21 166.953 1874.21 206.904H1874.73Z" fill="white"/>
<path d="M2052.94 144.126L1988 308.08H1950.07L1885.13 144.126H1919.42L1968.78 276.431L2018.13 144.126H2052.42H2052.94Z" fill="white"/>
<path d="M2225.95 144.124V308.078H2195.29V281.099C2182.82 300.296 2163.08 311.71 2137.1 311.71C2089.83 311.71 2056.05 274.872 2056.05 226.101C2056.05 177.33 2090.34 142.568 2137.1 142.568C2162.56 142.568 2182.82 152.945 2195.29 171.623V144.124H2225.95ZM2194.25 225.582C2194.25 192.377 2172.95 169.029 2141.78 169.029C2111.65 169.029 2089.31 193.414 2089.31 225.582C2089.31 257.751 2111.65 282.136 2141.78 282.136C2171.91 282.136 2194.25 258.788 2194.25 225.582Z" fill="white"/>
<path d="M2248.81 270.721L2278.94 259.307C2284.14 275.391 2298.17 284.73 2318.95 284.73C2337.13 284.73 2349.08 276.947 2349.08 263.458C2349.08 227.658 2256.6 243.742 2256.6 187.707C2256.6 158.652 2281.02 140.492 2318.43 140.492C2349.08 140.492 2371.42 152.944 2378.69 175.254L2348.56 186.669C2343.37 173.179 2332.97 166.953 2317.91 166.953C2301.28 166.953 2291.93 174.217 2291.93 186.15C2291.93 219.875 2384.41 201.197 2384.41 261.382C2384.41 293.55 2358.43 312.229 2318.43 312.229C2283.62 312.229 2258.16 297.701 2249.33 271.24L2248.81 270.721Z" fill="white"/>
<path d="M421.444 0.919434C409.458 0.919434 399.68 10.3694 399.68 22.3393C399.68 34.3092 409.458 44.0742 421.444 44.0742C433.43 44.0742 443.208 34.3092 443.208 22.3393C443.208 10.3694 433.43 0.919434 421.444 0.919434ZM421.444 39.6642C411.981 39.6642 404.096 31.7893 404.096 22.3393C404.096 12.8894 411.981 5.32941 421.444 5.32941C430.907 5.32941 438.792 12.8894 438.792 22.3393C438.792 31.7893 430.907 39.6642 421.444 39.6642Z" fill="white"/>
<path d="M426.175 24.8564C426.175 24.8564 427.436 23.9114 428.067 23.2814C428.698 22.0214 429.329 20.4464 429.329 18.5564C429.329 17.6114 429.013 16.3514 428.698 15.4064C428.383 14.4614 427.752 13.5164 426.805 12.8864C425.859 12.2564 424.913 11.6264 423.651 11.6264H422.705L422.074 11.3114H413.242V33.3613H417.027V25.8013H422.074L425.544 33.3613H430.275L426.175 24.8564ZM424.913 20.1314C424.913 20.1314 424.597 20.7614 424.282 21.0764C423.967 21.3914 423.651 21.7064 423.02 21.7064C423.02 21.7064 422.81 21.8114 422.389 22.0214H417.027V15.4064H423.02C423.02 15.4064 423.967 15.7214 424.282 16.0364C424.597 16.3514 424.913 16.6664 424.913 17.2964C425.228 17.6114 425.228 18.2414 425.228 18.5564C425.228 19.1864 425.228 19.5014 424.913 20.1314Z" fill="white"/>
<path d="M81.789 176.806L0.220703 129.592L222.066 0.919006L444.818 128.739L388.188 161.945L222.066 66.8119L114.001 129.592L138.939 143.601L222.066 95.3483L445.68 224.613L389.049 257.3L222.066 161.241L114.001 224.021L282.333 321.045L225.183 354.25L0.220703 224.021L81.789 176.806Z" fill="white"/>
<path d="M445.469 321.564L222.585 450.237L0.871094 320.397L57.5013 287.71H58.0209L222.585 384.863L332.208 321.564L164.915 224.54L221.545 191.853L445.469 321.564Z" fill="white"/>
</svg>
