<svg width="2385" height="451" viewBox="0 0 2385 451" fill="none" xmlns="http://www.w3.org/2000/svg">
<path d="M557.692 258.319L588.865 246.386C595.1 269.215 613.284 282.704 638.741 282.704C664.199 282.704 679.266 270.771 679.266 252.093C679.266 199.171 567.564 222 567.564 146.768C567.564 112.524 593.541 88.1387 638.222 88.1387C676.148 88.1387 701.086 106.298 709.399 134.835L678.227 146.768C671.992 126.014 658.484 116.675 636.663 116.675C613.284 116.675 600.295 128.09 600.295 144.174C600.295 194.501 712.516 170.116 712.516 251.055C712.516 287.374 682.902 311.241 635.624 311.241C596.139 311.241 567.044 292.044 557.692 258.319Z" fill="#6563ED"/>
<path d="M908.903 226.152C908.903 274.923 874.614 311.761 827.855 311.761C803.956 311.761 785.252 302.422 772.263 286.338V363.645H739.013V144.175H769.666V170.117C782.654 151.957 802.917 141.062 828.374 141.062C875.653 141.062 908.903 177.9 908.903 226.671V226.152ZM876.172 226.152C876.172 193.465 853.832 169.598 823.698 169.598C793.565 169.598 770.705 192.946 770.705 226.152C770.705 259.358 792.006 282.706 823.698 282.706C855.39 282.706 876.172 258.839 876.172 226.152Z" fill="#6563ED"/>
<path d="M927.088 226.149C927.088 176.859 962.936 140.54 1013.33 140.54C1063.73 140.54 1100.1 176.859 1100.1 226.149C1100.1 275.439 1064.25 311.758 1013.33 311.758C962.417 311.758 927.088 274.92 927.088 226.149ZM1066.85 226.149C1066.85 192.943 1045.54 169.595 1013.33 169.595C981.12 169.595 959.819 192.943 959.819 226.149C959.819 259.355 981.64 282.184 1013.33 282.184C1045.02 282.184 1066.85 258.836 1066.85 226.149Z" fill="#6563ED"/>
<path d="M1136.46 250.533V172.187H1107.37V143.651H1123.48C1133.87 143.651 1138.54 138.463 1138.54 127.567V101.106H1170.75V143.651H1216.47V172.187H1169.2V247.42C1169.2 268.173 1180.11 279.069 1199.85 279.069H1218.03V308.124H1193.09C1156.21 308.124 1136.46 285.814 1136.46 251.051V250.533Z" fill="#6563ED"/>
<path d="M1294.41 200.209C1294.41 134.316 1341.17 88.1387 1402.99 88.1387C1456.5 88.1387 1489.24 119.788 1502.22 157.664L1470.53 170.635C1460.66 139.504 1438.32 119.788 1402.47 119.788C1359.35 119.788 1328.18 152.475 1328.18 200.209C1328.18 247.942 1359.87 280.629 1403.51 280.629C1438.84 280.629 1460.66 261.432 1470.53 229.783L1502.22 242.754C1489.24 281.667 1456.5 312.278 1403.51 312.278C1340.65 312.278 1294.41 266.102 1294.41 200.727V200.209Z" fill="#6563ED"/>
<path d="M1686.66 144.172V308.126H1656.01V281.147C1643.54 300.344 1623.8 311.758 1597.82 311.758C1550.54 311.758 1516.77 274.92 1516.77 226.149C1516.77 177.378 1551.06 142.616 1597.82 142.616C1623.28 142.616 1643.54 152.993 1656.01 171.671V144.172H1686.66ZM1654.45 225.63C1654.45 192.425 1633.15 169.077 1601.97 169.077C1571.84 169.077 1549.5 193.462 1549.5 225.63C1549.5 257.799 1571.84 282.184 1601.97 282.184C1632.11 282.184 1654.45 258.836 1654.45 225.63Z" fill="#6563ED"/>
<path d="M1874.73 206.952V308.126H1842V213.178C1842 186.198 1825.9 170.114 1799.4 170.114C1774.98 170.114 1756.8 188.273 1756.28 208.508V308.126H1723.03V144.172H1754.2V164.926C1765.63 150.398 1784.33 140.54 1808.23 140.54C1849.28 140.54 1874.21 167.001 1874.21 206.952H1874.73Z" fill="#6563ED"/>
<path d="M2052.94 144.174L1988 308.129H1950.07L1885.13 144.174H1919.42L1968.78 276.479L2018.13 144.174H2052.42H2052.94Z" fill="#6563ED"/>
<path d="M2225.95 144.172V308.126H2195.29V281.147C2182.82 300.344 2163.08 311.758 2137.1 311.758C2089.83 311.758 2056.05 274.92 2056.05 226.149C2056.05 177.378 2090.34 142.616 2137.1 142.616C2162.56 142.616 2182.82 152.993 2195.29 171.671V144.172H2225.95ZM2194.25 225.63C2194.25 192.425 2172.95 169.077 2141.78 169.077C2111.65 169.077 2089.31 193.462 2089.31 225.63C2089.31 257.799 2111.65 282.184 2141.78 282.184C2171.91 282.184 2194.25 258.836 2194.25 225.63Z" fill="#6563ED"/>
<path d="M2248.81 270.769L2278.94 259.355C2284.14 275.439 2298.17 284.778 2318.95 284.778C2337.13 284.778 2349.08 276.995 2349.08 263.506C2349.08 227.705 2256.6 243.79 2256.6 187.755C2256.6 158.7 2281.02 140.54 2318.43 140.54C2349.08 140.54 2371.42 152.992 2378.69 175.302L2348.56 186.717C2343.37 173.227 2332.97 167.001 2317.91 167.001C2301.28 167.001 2291.93 174.265 2291.93 186.198C2291.93 219.923 2384.41 201.245 2384.41 261.43C2384.41 293.598 2358.43 312.277 2318.43 312.277C2283.62 312.277 2258.16 297.749 2249.33 271.288L2248.81 270.769Z" fill="#6563ED"/>
<path d="M421.444 0.967407C409.458 0.967407 399.68 10.4174 399.68 22.3873C399.68 34.3572 409.458 44.1222 421.444 44.1222C433.43 44.1222 443.208 34.3572 443.208 22.3873C443.208 10.4174 433.43 0.967407 421.444 0.967407ZM421.444 39.7122C411.981 39.7122 404.096 31.8372 404.096 22.3873C404.096 12.9373 411.981 5.37738 421.444 5.37738C430.907 5.37738 438.792 12.9373 438.792 22.3873C438.792 31.8372 430.907 39.7122 421.444 39.7122Z" fill="#6563ED"/>
<path d="M426.175 24.9043C426.175 24.9043 427.436 23.9593 428.067 23.3293C428.698 22.0693 429.329 20.4943 429.329 18.6043C429.329 17.6593 429.013 16.3993 428.698 15.4544C428.383 14.5094 427.752 13.5644 426.805 12.9344C425.859 12.3044 424.913 11.6744 423.651 11.6744H422.705L422.074 11.3594H413.242V33.4092H417.027V25.8493H422.074L425.544 33.4092H430.275L426.175 24.9043ZM424.913 20.1793C424.913 20.1793 424.597 20.8093 424.282 21.1243C423.967 21.4393 423.651 21.7543 423.02 21.7543C423.02 21.7543 422.81 21.8593 422.389 22.0693H417.027V15.4544H423.02C423.02 15.4544 423.967 15.7693 424.282 16.0843C424.597 16.3993 424.913 16.7143 424.913 17.3443C425.228 17.6593 425.228 18.2893 425.228 18.6043C425.228 19.2343 425.228 19.5493 424.913 20.1793Z" fill="#6563ED"/>
<path d="M81.789 176.854L0.220703 129.64L222.066 0.967041L444.818 128.787L388.188 161.993L222.066 66.86L114.001 129.64L138.939 143.649L222.066 95.3963L445.68 224.661L389.049 257.348L222.066 161.289L114.001 224.069L282.333 321.093L225.183 354.298L0.220703 224.069L81.789 176.854Z" fill="#6563ED"/>
<path d="M445.469 321.612L222.585 450.285L0.871094 320.445L57.5013 287.758H58.0209L222.585 384.911L332.208 321.612L164.915 224.588L221.545 191.901L445.469 321.612Z" fill="#6563ED"/>
</svg>
