<svg width="2385" height="451" viewBox="0 0 2385 451" fill="none" xmlns="http://www.w3.org/2000/svg">
<path d="M558.139 258.319L589.312 246.386C595.546 269.215 613.73 282.704 639.188 282.704C664.646 282.704 679.712 270.771 679.712 252.093C679.712 199.171 568.011 222 568.011 146.768C568.011 112.524 593.988 88.1387 638.668 88.1387C676.595 88.1387 701.533 106.298 709.846 134.835L678.673 146.768C672.439 126.014 658.931 116.675 637.11 116.675C613.73 116.675 600.742 128.09 600.742 144.174C600.742 194.501 712.963 170.116 712.963 251.055C712.963 287.374 683.349 311.241 636.071 311.241C596.585 311.241 567.491 292.044 558.139 258.319Z" fill="#D7EA57"/>
<path d="M909.35 226.152C909.35 274.923 875.06 311.761 828.301 311.761C804.402 311.761 785.698 302.422 772.71 286.338V363.645H739.459V144.175H770.112V170.117C783.101 151.957 803.363 141.062 828.82 141.062C876.099 141.062 909.35 177.9 909.35 226.671V226.152ZM876.618 226.152C876.618 193.465 854.278 169.598 824.145 169.598C794.011 169.598 771.151 192.946 771.151 226.152C771.151 259.358 792.452 282.706 824.145 282.706C855.837 282.706 876.618 258.839 876.618 226.152Z" fill="#D7EA57"/>
<path d="M927.535 226.149C927.535 176.859 963.383 140.54 1013.78 140.54C1064.17 140.54 1100.54 176.859 1100.54 226.149C1100.54 275.439 1064.69 311.758 1013.78 311.758C962.864 311.758 927.535 274.92 927.535 226.149ZM1067.29 226.149C1067.29 192.943 1045.99 169.595 1013.78 169.595C981.567 169.595 960.266 192.943 960.266 226.149C960.266 259.355 982.087 282.184 1013.78 282.184C1045.47 282.184 1067.29 258.836 1067.29 226.149Z" fill="#D7EA57"/>
<path d="M1136.91 250.533V172.187H1107.82V143.651H1123.92C1134.31 143.651 1138.99 138.463 1138.99 127.567V101.106H1171.2V143.651H1216.92V172.187H1169.64V247.42C1169.64 268.173 1180.55 279.069 1200.3 279.069H1218.48V308.124H1193.54C1156.65 308.124 1136.91 285.814 1136.91 251.051V250.533Z" fill="#D7EA57"/>
<path d="M1294.85 200.209C1294.85 134.316 1341.61 88.1387 1403.44 88.1387C1456.95 88.1387 1489.68 119.788 1502.67 157.664L1470.98 170.635C1461.11 139.504 1438.77 119.788 1402.92 119.788C1359.8 119.788 1328.62 152.475 1328.62 200.209C1328.62 247.942 1360.32 280.629 1403.96 280.629C1439.29 280.629 1461.11 261.432 1470.98 229.783L1502.67 242.754C1489.68 281.667 1456.95 312.278 1403.96 312.278C1341.09 312.278 1294.85 266.102 1294.85 200.727V200.209Z" fill="#D7EA57"/>
<path d="M1687.11 144.172V308.126H1656.45V281.147C1643.99 300.344 1624.24 311.758 1598.27 311.758C1550.99 311.758 1517.22 274.92 1517.22 226.149C1517.22 177.378 1551.51 142.616 1598.27 142.616C1623.72 142.616 1643.99 152.993 1656.45 171.671V144.172H1687.11ZM1654.9 225.63C1654.9 192.425 1633.59 169.077 1602.42 169.077C1572.29 169.077 1549.95 193.462 1549.95 225.63C1549.95 257.799 1572.29 282.184 1602.42 282.184C1632.56 282.184 1654.9 258.836 1654.9 225.63Z" fill="#D7EA57"/>
<path d="M1875.18 206.952V308.126H1842.45V213.178C1842.45 186.198 1826.34 170.114 1799.85 170.114C1775.43 170.114 1757.24 188.273 1756.72 208.508V308.126H1723.47V144.172H1754.65V164.926C1766.08 150.398 1784.78 140.54 1808.68 140.54C1849.72 140.54 1874.66 167.001 1874.66 206.952H1875.18Z" fill="#D7EA57"/>
<path d="M2053.39 144.174L1988.44 308.129H1950.52L1885.58 144.174H1919.87L1969.22 276.479L2018.58 144.174H2052.87H2053.39Z" fill="#D7EA57"/>
<path d="M2226.39 144.172V308.126H2195.74V281.147C2183.27 300.344 2163.53 311.758 2137.55 311.758C2090.27 311.758 2056.5 274.92 2056.5 226.149C2056.5 177.378 2090.79 142.616 2137.55 142.616C2163.01 142.616 2183.27 152.993 2195.74 171.671V144.172H2226.39ZM2194.7 225.63C2194.7 192.425 2173.4 169.077 2142.23 169.077C2112.09 169.077 2089.75 193.462 2089.75 225.63C2089.75 257.799 2112.09 282.184 2142.23 282.184C2172.36 282.184 2194.7 258.836 2194.7 225.63Z" fill="#D7EA57"/>
<path d="M2249.26 270.769L2279.39 259.355C2284.58 275.439 2298.61 284.778 2319.39 284.778C2337.58 284.778 2349.53 276.995 2349.53 263.506C2349.53 227.705 2257.05 243.79 2257.05 187.755C2257.05 158.7 2281.47 140.54 2318.87 140.54C2349.53 140.54 2371.87 152.992 2379.14 175.302L2349.01 186.717C2343.81 173.227 2333.42 167.001 2318.36 167.001C2301.73 167.001 2292.38 174.265 2292.38 186.198C2292.38 219.923 2384.86 201.245 2384.86 261.43C2384.86 293.598 2358.88 312.277 2318.87 312.277C2284.07 312.277 2258.61 297.749 2249.78 271.288L2249.26 270.769Z" fill="#D7EA57"/>
<path d="M421.891 0.967468C409.905 0.967468 400.126 10.4174 400.126 22.3873C400.126 34.3573 409.905 44.1222 421.891 44.1222C433.877 44.1222 443.655 34.3573 443.655 22.3873C443.655 10.4174 433.877 0.967468 421.891 0.967468ZM421.891 39.7122C412.428 39.7122 404.542 31.8373 404.542 22.3873C404.542 12.9374 412.428 5.37744 421.891 5.37744C431.353 5.37744 439.239 12.9374 439.239 22.3873C439.239 31.8373 431.353 39.7122 421.891 39.7122Z" fill="#D7EA57"/>
<path d="M426.621 24.9044C426.621 24.9044 427.883 23.9594 428.514 23.3294C429.145 22.0694 429.776 20.4944 429.776 18.6044C429.776 17.6594 429.46 16.3994 429.145 15.4544C428.829 14.5094 428.198 13.5644 427.252 12.9344C426.306 12.3044 425.36 11.6744 424.098 11.6744H423.152L422.521 11.3594H413.689V33.4093H417.474V25.8494H422.521L425.991 33.4093H430.722L426.621 24.9044ZM425.36 20.1794C425.36 20.1794 425.044 20.8094 424.729 21.1244C424.413 21.4394 424.098 21.7544 423.467 21.7544C423.467 21.7544 423.257 21.8594 422.836 22.0694H417.474V15.4544H423.467C423.467 15.4544 424.413 15.7694 424.729 16.0844C425.044 16.3994 425.36 16.7144 425.36 17.3444C425.675 17.6594 425.675 18.2894 425.675 18.6044C425.675 19.2344 425.675 19.5494 425.36 20.1794Z" fill="#D7EA57"/>
<path d="M82.2353 176.854L0.666992 129.64L222.512 0.967041L445.265 128.787L388.634 161.993L222.512 66.86L114.447 129.64L139.385 143.649L222.512 95.3963L446.126 224.661L389.496 257.348L222.512 161.289L114.447 224.069L282.779 321.093L225.629 354.298L0.666992 224.069L82.2353 176.854Z" fill="#D7EA57"/>
<path d="M445.915 321.612L223.031 450.285L1.31738 320.445L57.9476 287.758H58.4672L223.031 384.911L332.654 321.612L165.361 224.588L221.992 191.901L445.915 321.612Z" fill="#D7EA57"/>
</svg>
