<svg width="2385" height="451" viewBox="0 0 2385 451" fill="none" xmlns="http://www.w3.org/2000/svg">
<path d="M558.139 258.271L589.312 246.338C595.546 269.167 613.73 282.656 639.188 282.656C664.646 282.656 679.712 270.723 679.712 252.045C679.712 199.123 568.011 221.952 568.011 146.72C568.011 112.476 593.988 88.0907 638.668 88.0907C676.595 88.0907 701.533 106.25 709.846 134.787L678.673 146.72C672.439 125.966 658.931 116.627 637.11 116.627C613.73 116.627 600.742 128.042 600.742 144.126C600.742 194.453 712.963 170.068 712.963 251.007C712.963 287.326 683.349 311.193 636.071 311.193C596.585 311.193 567.491 291.996 558.139 258.271Z" fill="#181818"/>
<path d="M909.35 226.104C909.35 274.875 875.06 311.713 828.301 311.713C804.402 311.713 785.698 302.374 772.71 286.29V363.597H739.459V144.127H770.112V170.069C783.101 151.909 803.363 141.014 828.82 141.014C876.099 141.014 909.35 177.852 909.35 226.623V226.104ZM876.618 226.104C876.618 193.417 854.278 169.55 824.145 169.55C794.011 169.55 771.151 192.898 771.151 226.104C771.151 259.31 792.452 282.658 824.145 282.658C855.837 282.658 876.618 258.791 876.618 226.104Z" fill="#181818"/>
<path d="M927.535 226.101C927.535 176.811 963.383 140.492 1013.78 140.492C1064.17 140.492 1100.54 176.811 1100.54 226.101C1100.54 275.391 1064.69 311.71 1013.78 311.71C962.864 311.71 927.535 274.872 927.535 226.101ZM1067.29 226.101C1067.29 192.895 1045.99 169.547 1013.78 169.547C981.567 169.547 960.266 192.895 960.266 226.101C960.266 259.307 982.087 282.136 1013.78 282.136C1045.47 282.136 1067.29 258.788 1067.29 226.101Z" fill="#181818"/>
<path d="M1136.91 250.485V172.139H1107.82V143.603H1123.92C1134.31 143.603 1138.99 138.415 1138.99 127.519V101.058H1171.2V143.603H1216.92V172.139H1169.64V247.372C1169.64 268.125 1180.55 279.021 1200.3 279.021H1218.48V308.076H1193.54C1156.65 308.076 1136.91 285.766 1136.91 251.003V250.485Z" fill="#181818"/>
<path d="M1294.85 200.161C1294.85 134.268 1341.61 88.0907 1403.44 88.0907C1456.95 88.0907 1489.68 119.74 1502.67 157.616L1470.98 170.587C1461.11 139.456 1438.77 119.74 1402.92 119.74C1359.8 119.74 1328.62 152.427 1328.62 200.161C1328.62 247.894 1360.32 280.581 1403.96 280.581C1439.29 280.581 1461.11 261.384 1470.98 229.735L1502.67 242.706C1489.68 281.619 1456.95 312.23 1403.96 312.23C1341.09 312.23 1294.85 266.054 1294.85 200.679V200.161Z" fill="#181818"/>
<path d="M1687.11 144.124V308.078H1656.45V281.099C1643.99 300.296 1624.24 311.71 1598.27 311.71C1550.99 311.71 1517.22 274.872 1517.22 226.101C1517.22 177.33 1551.51 142.568 1598.27 142.568C1623.72 142.568 1643.99 152.945 1656.45 171.623V144.124H1687.11ZM1654.9 225.582C1654.9 192.377 1633.59 169.029 1602.42 169.029C1572.29 169.029 1549.95 193.414 1549.95 225.582C1549.95 257.751 1572.29 282.136 1602.42 282.136C1632.56 282.136 1654.9 258.788 1654.9 225.582Z" fill="#181818"/>
<path d="M1875.18 206.904V308.078H1842.45V213.13C1842.45 186.15 1826.34 170.066 1799.85 170.066C1775.43 170.066 1757.24 188.226 1756.72 208.46V308.078H1723.47V144.124H1754.65V164.878C1766.08 150.35 1784.78 140.492 1808.68 140.492C1849.72 140.492 1874.66 166.953 1874.66 206.904H1875.18Z" fill="#181818"/>
<path d="M2053.39 144.126L1988.44 308.08H1950.52L1885.58 144.126H1919.87L1969.22 276.431L2018.58 144.126H2052.87H2053.39Z" fill="#181818"/>
<path d="M2226.39 144.124V308.078H2195.74V281.099C2183.27 300.296 2163.53 311.71 2137.55 311.71C2090.27 311.71 2056.5 274.872 2056.5 226.101C2056.5 177.33 2090.79 142.568 2137.55 142.568C2163.01 142.568 2183.27 152.945 2195.74 171.623V144.124H2226.39ZM2194.7 225.582C2194.7 192.377 2173.4 169.029 2142.23 169.029C2112.09 169.029 2089.75 193.414 2089.75 225.582C2089.75 257.751 2112.09 282.136 2142.23 282.136C2172.36 282.136 2194.7 258.788 2194.7 225.582Z" fill="#181818"/>
<path d="M2249.26 270.721L2279.39 259.307C2284.58 275.391 2298.61 284.73 2319.39 284.73C2337.58 284.73 2349.53 276.947 2349.53 263.458C2349.53 227.658 2257.05 243.742 2257.05 187.707C2257.05 158.652 2281.47 140.492 2318.87 140.492C2349.53 140.492 2371.87 152.944 2379.14 175.254L2349.01 186.669C2343.81 173.179 2333.42 166.953 2318.36 166.953C2301.73 166.953 2292.38 174.217 2292.38 186.15C2292.38 219.875 2384.86 201.197 2384.86 261.382C2384.86 293.55 2358.88 312.229 2318.87 312.229C2284.07 312.229 2258.61 297.701 2249.78 271.24L2249.26 270.721Z" fill="#181818"/>
<path d="M421.891 0.919434C409.905 0.919434 400.126 10.3694 400.126 22.3393C400.126 34.3092 409.905 44.0742 421.891 44.0742C433.877 44.0742 443.655 34.3092 443.655 22.3393C443.655 10.3694 433.877 0.919434 421.891 0.919434ZM421.891 39.6642C412.428 39.6642 404.542 31.7893 404.542 22.3393C404.542 12.8894 412.428 5.32941 421.891 5.32941C431.353 5.32941 439.239 12.8894 439.239 22.3393C439.239 31.7893 431.353 39.6642 421.891 39.6642Z" fill="#181818"/>
<path d="M426.621 24.8564C426.621 24.8564 427.883 23.9114 428.514 23.2814C429.145 22.0214 429.776 20.4464 429.776 18.5564C429.776 17.6114 429.46 16.3514 429.145 15.4064C428.829 14.4614 428.198 13.5164 427.252 12.8864C426.306 12.2564 425.36 11.6264 424.098 11.6264H423.152L422.521 11.3114H413.689V33.3613H417.474V25.8013H422.521L425.991 33.3613H430.722L426.621 24.8564ZM425.36 20.1314C425.36 20.1314 425.044 20.7614 424.729 21.0764C424.413 21.3914 424.098 21.7064 423.467 21.7064C423.467 21.7064 423.257 21.8114 422.836 22.0214H417.474V15.4064H423.467C423.467 15.4064 424.413 15.7214 424.729 16.0364C425.044 16.3514 425.36 16.6664 425.36 17.2964C425.675 17.6114 425.675 18.2414 425.675 18.5564C425.675 19.1864 425.675 19.5014 425.36 20.1314Z" fill="#181818"/>
<path d="M82.2353 176.806L0.666992 129.592L222.512 0.919006L445.265 128.739L388.634 161.945L222.512 66.8119L114.447 129.592L139.385 143.601L222.512 95.3483L446.126 224.613L389.496 257.3L222.512 161.241L114.447 224.021L282.779 321.045L225.629 354.25L0.666992 224.021L82.2353 176.806Z" fill="#181818"/>
<path d="M445.915 321.564L223.031 450.237L1.31738 320.397L57.9476 287.71H58.4672L223.031 384.863L332.654 321.564L165.361 224.54L221.992 191.853L445.915 321.564Z" fill="#181818"/>
</svg>
