<svg width="2385" height="450" viewBox="0 0 2385 450" fill="none" xmlns="http://www.w3.org/2000/svg">
<path d="M557.692 257.366L588.865 245.433C595.1 268.262 613.284 281.752 638.741 281.752C664.199 281.752 679.266 269.819 679.266 251.14C679.266 198.218 567.564 221.047 567.564 145.815C567.564 111.572 593.541 87.1862 638.222 87.1862C676.148 87.1862 701.086 105.346 709.399 133.882L678.227 145.815C671.992 125.062 658.484 115.722 636.663 115.722C613.284 115.722 600.295 127.137 600.295 143.221C600.295 193.549 712.516 169.163 712.516 250.103C712.516 286.421 682.902 310.288 635.624 310.288C596.139 310.288 567.044 291.091 557.692 257.366Z" fill="#F1FEE0"/>
<path d="M908.903 225.199C908.903 273.97 874.614 310.808 827.855 310.808C803.956 310.808 785.252 301.469 772.263 285.385V362.692H739.013V143.222H769.666V169.164C782.654 151.005 802.917 140.109 828.374 140.109C875.653 140.109 908.903 176.947 908.903 225.718V225.199ZM876.172 225.199C876.172 192.512 853.832 168.646 823.698 168.646C793.565 168.646 770.705 191.993 770.705 225.199C770.705 258.405 792.006 281.753 823.698 281.753C855.39 281.753 876.172 257.886 876.172 225.199Z" fill="#F1FEE0"/>
<path d="M927.088 225.196C927.088 175.906 962.936 139.588 1013.33 139.588C1063.73 139.588 1100.1 175.906 1100.1 225.196C1100.1 274.486 1064.25 310.805 1013.33 310.805C962.417 310.805 927.088 273.968 927.088 225.196ZM1066.85 225.196C1066.85 191.991 1045.54 168.643 1013.33 168.643C981.12 168.643 959.819 191.991 959.819 225.196C959.819 258.402 981.64 281.231 1013.33 281.231C1045.02 281.231 1066.85 257.883 1066.85 225.196Z" fill="#F1FEE0"/>
<path d="M1136.46 249.58V171.235H1107.37V142.698H1123.48C1133.87 142.698 1138.54 137.51 1138.54 126.614V100.153H1170.75V142.698H1216.47V171.235H1169.2V246.467C1169.2 267.221 1180.11 278.116 1199.85 278.116H1218.03V307.171H1193.09C1156.21 307.171 1136.46 284.861 1136.46 250.099V249.58Z" fill="#F1FEE0"/>
<path d="M1294.41 199.256C1294.41 133.363 1341.17 87.1862 1402.99 87.1862C1456.5 87.1862 1489.24 118.836 1502.22 156.711L1470.53 169.682C1460.66 138.552 1438.32 118.836 1402.47 118.836C1359.35 118.836 1328.18 151.523 1328.18 199.256C1328.18 246.989 1359.87 279.677 1403.51 279.677C1438.84 279.677 1460.66 260.479 1470.53 228.83L1502.22 241.801C1489.24 280.714 1456.5 311.326 1403.51 311.326C1340.65 311.326 1294.41 265.149 1294.41 199.775V199.256Z" fill="#F1FEE0"/>
<path d="M1686.66 143.22V307.174H1656.01V280.194C1643.54 299.391 1623.8 310.806 1597.82 310.806C1550.54 310.806 1516.77 273.968 1516.77 225.197C1516.77 176.426 1551.06 141.663 1597.82 141.663C1623.28 141.663 1643.54 152.04 1656.01 170.718V143.22H1686.66ZM1654.45 224.678C1654.45 191.472 1633.15 168.124 1601.97 168.124C1571.84 168.124 1549.5 192.51 1549.5 224.678C1549.5 256.846 1571.84 281.232 1601.97 281.232C1632.11 281.232 1654.45 257.884 1654.45 224.678Z" fill="#F1FEE0"/>
<path d="M1874.73 205.999V307.173H1842V212.225C1842 185.246 1825.9 169.162 1799.4 169.162C1774.98 169.162 1756.8 187.321 1756.28 207.556V307.173H1723.03V143.219H1754.2V163.973C1765.63 149.446 1784.33 139.588 1808.23 139.588C1849.28 139.588 1874.21 166.048 1874.21 205.999H1874.73Z" fill="#F1FEE0"/>
<path d="M2052.94 143.222L1988 307.176H1950.07L1885.13 143.222H1919.42L1968.78 275.526L2018.13 143.222H2052.42H2052.94Z" fill="#F1FEE0"/>
<path d="M2225.95 143.22V307.174H2195.29V280.194C2182.82 299.391 2163.08 310.806 2137.1 310.806C2089.83 310.806 2056.05 273.968 2056.05 225.197C2056.05 176.426 2090.34 141.663 2137.1 141.663C2162.56 141.663 2182.82 152.04 2195.29 170.718V143.22H2225.95ZM2194.25 224.678C2194.25 191.472 2172.95 168.124 2141.78 168.124C2111.65 168.124 2089.31 192.51 2089.31 224.678C2089.31 256.846 2111.65 281.232 2141.78 281.232C2171.91 281.232 2194.25 257.884 2194.25 224.678Z" fill="#F1FEE0"/>
<path d="M2248.81 269.817L2278.94 258.402C2284.14 274.486 2298.17 283.826 2318.95 283.826C2337.13 283.826 2349.08 276.043 2349.08 262.553C2349.08 226.753 2256.6 242.837 2256.6 186.802C2256.6 157.747 2281.02 139.588 2318.43 139.588C2349.08 139.588 2371.42 152.04 2378.69 174.35L2348.56 185.764C2343.37 172.275 2332.97 166.048 2317.91 166.048C2301.28 166.048 2291.93 173.312 2291.93 185.246C2291.93 218.97 2384.41 200.292 2384.41 260.478C2384.41 292.646 2358.43 311.324 2318.43 311.324C2283.62 311.324 2258.16 296.797 2249.33 270.336L2248.81 269.817Z" fill="#F1FEE0"/>
<path d="M421.444 0.0148926C409.458 0.0148926 399.68 9.46484 399.68 21.4348C399.68 33.4047 409.458 43.1696 421.444 43.1696C433.43 43.1696 443.208 33.4047 443.208 21.4348C443.208 9.46484 433.43 0.0148926 421.444 0.0148926ZM421.444 38.7597C411.981 38.7597 404.096 30.8847 404.096 21.4348C404.096 11.9848 411.981 4.42487 421.444 4.42487C430.907 4.42487 438.792 11.9848 438.792 21.4348C438.792 30.8847 430.907 38.7597 421.444 38.7597Z" fill="#F1FEE0"/>
<path d="M426.175 23.9518C426.175 23.9518 427.436 23.0068 428.067 22.3768C428.698 21.1168 429.329 19.5418 429.329 17.6518C429.329 16.7068 429.013 15.4468 428.698 14.5018C428.383 13.5568 427.752 12.6118 426.805 11.9819C425.859 11.3519 424.913 10.7219 423.651 10.7219H422.705L422.074 10.4069H413.242V32.4567H417.027V24.8968H422.074L425.544 32.4567H430.275L426.175 23.9518ZM424.913 19.2268C424.913 19.2268 424.597 19.8568 424.282 20.1718C423.967 20.4868 423.651 20.8018 423.02 20.8018C423.02 20.8018 422.81 20.9068 422.389 21.1168H417.027V14.5018H423.02C423.02 14.5018 423.967 14.8168 424.282 15.1318C424.597 15.4468 424.913 15.7618 424.913 16.3918C425.228 16.7068 425.228 17.3368 425.228 17.6518C425.228 18.2818 425.228 18.5968 424.913 19.2268Z" fill="#F1FEE0"/>
<path d="M81.789 175.902L0.220703 128.687L222.066 0.0144043L444.818 127.834L388.188 161.04L222.066 65.9073L114.001 128.687L138.939 142.696L222.066 94.4437L445.68 223.709L389.049 256.396L222.066 160.337L114.001 223.116L282.333 320.14L225.183 353.346L0.220703 223.116L81.789 175.902Z" fill="#F1FEE0"/>
<path d="M445.469 320.659L222.585 449.332L0.871094 319.493L57.5013 286.806H58.0209L222.585 383.958L332.208 320.659L164.915 223.636L221.545 190.949L445.469 320.659Z" fill="#F1FEE0"/>
</svg>
