<svg width="2385" height="450" viewBox="0 0 2385 450" fill="none" xmlns="http://www.w3.org/2000/svg">
<path d="M558.139 257.366L589.312 245.433C595.546 268.262 613.73 281.752 639.188 281.752C664.646 281.752 679.712 269.819 679.712 251.14C679.712 198.218 568.011 221.047 568.011 145.815C568.011 111.572 593.988 87.1862 638.668 87.1862C676.595 87.1862 701.533 105.346 709.846 133.882L678.673 145.815C672.439 125.062 658.931 115.722 637.11 115.722C613.73 115.722 600.742 127.137 600.742 143.221C600.742 193.549 712.963 169.163 712.963 250.103C712.963 286.421 683.349 310.288 636.071 310.288C596.585 310.288 567.491 291.091 558.139 257.366Z" fill="#EB4545"/>
<path d="M909.35 225.199C909.35 273.97 875.06 310.808 828.301 310.808C804.402 310.808 785.698 301.469 772.71 285.385V362.692H739.459V143.222H770.112V169.164C783.101 151.005 803.363 140.109 828.82 140.109C876.099 140.109 909.35 176.947 909.35 225.718V225.199ZM876.618 225.199C876.618 192.512 854.278 168.646 824.145 168.646C794.011 168.646 771.151 191.993 771.151 225.199C771.151 258.405 792.452 281.753 824.145 281.753C855.837 281.753 876.618 257.886 876.618 225.199Z" fill="#EB4545"/>
<path d="M927.535 225.196C927.535 175.906 963.383 139.588 1013.78 139.588C1064.17 139.588 1100.54 175.906 1100.54 225.196C1100.54 274.486 1064.69 310.805 1013.78 310.805C962.864 310.805 927.535 273.968 927.535 225.196ZM1067.29 225.196C1067.29 191.991 1045.99 168.643 1013.78 168.643C981.567 168.643 960.266 191.991 960.266 225.196C960.266 258.402 982.087 281.231 1013.78 281.231C1045.47 281.231 1067.29 257.883 1067.29 225.196Z" fill="#EB4545"/>
<path d="M1136.91 249.58V171.235H1107.82V142.698H1123.92C1134.31 142.698 1138.99 137.51 1138.99 126.614V100.153H1171.2V142.698H1216.92V171.235H1169.64V246.467C1169.64 267.221 1180.55 278.116 1200.3 278.116H1218.48V307.171H1193.54C1156.65 307.171 1136.91 284.861 1136.91 250.099V249.58Z" fill="#EB4545"/>
<path d="M1294.85 199.256C1294.85 133.363 1341.61 87.1862 1403.44 87.1862C1456.95 87.1862 1489.68 118.836 1502.67 156.711L1470.98 169.682C1461.11 138.552 1438.77 118.836 1402.92 118.836C1359.8 118.836 1328.62 151.523 1328.62 199.256C1328.62 246.989 1360.32 279.677 1403.96 279.677C1439.29 279.677 1461.11 260.479 1470.98 228.83L1502.67 241.801C1489.68 280.714 1456.95 311.326 1403.96 311.326C1341.09 311.326 1294.85 265.149 1294.85 199.775V199.256Z" fill="#EB4545"/>
<path d="M1687.11 143.22V307.174H1656.45V280.194C1643.99 299.391 1624.24 310.806 1598.27 310.806C1550.99 310.806 1517.22 273.968 1517.22 225.197C1517.22 176.426 1551.51 141.663 1598.27 141.663C1623.72 141.663 1643.99 152.04 1656.45 170.718V143.22H1687.11ZM1654.9 224.678C1654.9 191.472 1633.59 168.124 1602.42 168.124C1572.29 168.124 1549.95 192.51 1549.95 224.678C1549.95 256.846 1572.29 281.232 1602.42 281.232C1632.56 281.232 1654.9 257.884 1654.9 224.678Z" fill="#EB4545"/>
<path d="M1875.18 205.999V307.173H1842.45V212.225C1842.45 185.246 1826.34 169.162 1799.85 169.162C1775.43 169.162 1757.24 187.321 1756.72 207.556V307.173H1723.47V143.219H1754.65V163.973C1766.08 149.446 1784.78 139.588 1808.68 139.588C1849.72 139.588 1874.66 166.048 1874.66 205.999H1875.18Z" fill="#EB4545"/>
<path d="M2053.39 143.222L1988.44 307.176H1950.52L1885.58 143.222H1919.87L1969.22 275.526L2018.58 143.222H2052.87H2053.39Z" fill="#EB4545"/>
<path d="M2226.39 143.22V307.174H2195.74V280.194C2183.27 299.391 2163.53 310.806 2137.55 310.806C2090.27 310.806 2056.5 273.968 2056.5 225.197C2056.5 176.426 2090.79 141.663 2137.55 141.663C2163.01 141.663 2183.27 152.04 2195.74 170.718V143.22H2226.39ZM2194.7 224.678C2194.7 191.472 2173.4 168.124 2142.23 168.124C2112.09 168.124 2089.75 192.51 2089.75 224.678C2089.75 256.846 2112.09 281.232 2142.23 281.232C2172.36 281.232 2194.7 257.884 2194.7 224.678Z" fill="#EB4545"/>
<path d="M2249.26 269.817L2279.39 258.402C2284.58 274.486 2298.61 283.826 2319.39 283.826C2337.58 283.826 2349.53 276.043 2349.53 262.553C2349.53 226.753 2257.05 242.837 2257.05 186.802C2257.05 157.747 2281.47 139.588 2318.87 139.588C2349.53 139.588 2371.87 152.04 2379.14 174.35L2349.01 185.764C2343.81 172.275 2333.42 166.048 2318.36 166.048C2301.73 166.048 2292.38 173.312 2292.38 185.246C2292.38 218.97 2384.86 200.292 2384.86 260.478C2384.86 292.646 2358.88 311.324 2318.87 311.324C2284.07 311.324 2258.61 296.797 2249.78 270.336L2249.26 269.817Z" fill="#EB4545"/>
<path d="M421.891 0.0150146C409.905 0.0150146 400.126 9.46496 400.126 21.4349C400.126 33.4048 409.905 43.1698 421.891 43.1698C433.877 43.1698 443.655 33.4048 443.655 21.4349C443.655 9.46496 433.877 0.0150146 421.891 0.0150146ZM421.891 38.7598C412.428 38.7598 404.542 30.8848 404.542 21.4349C404.542 11.9849 412.428 4.42499 421.891 4.42499C431.353 4.42499 439.239 11.9849 439.239 21.4349C439.239 30.8848 431.353 38.7598 421.891 38.7598Z" fill="#EB4545"/>
<path d="M426.621 23.9519C426.621 23.9519 427.883 23.0069 428.514 22.3769C429.145 21.1169 429.776 19.5419 429.776 17.6519C429.776 16.7069 429.46 15.447 429.145 14.502C428.829 13.557 428.198 12.612 427.252 11.982C426.306 11.352 425.36 10.722 424.098 10.722H423.152L422.521 10.407H413.689V32.4569H417.474V24.8969H422.521L425.991 32.4569H430.722L426.621 23.9519ZM425.36 19.2269C425.36 19.2269 425.044 19.8569 424.729 20.1719C424.413 20.4869 424.098 20.8019 423.467 20.8019C423.467 20.8019 423.257 20.9069 422.836 21.1169H417.474V14.502H423.467C423.467 14.502 424.413 14.817 424.729 15.132C425.044 15.447 425.36 15.762 425.36 16.3919C425.675 16.7069 425.675 17.3369 425.675 17.6519C425.675 18.2819 425.675 18.5969 425.36 19.2269Z" fill="#EB4545"/>
<path d="M82.2353 175.902L0.666992 128.687L222.512 0.0144043L445.265 127.834L388.634 161.04L222.512 65.9073L114.447 128.687L139.385 142.696L222.512 94.4437L446.126 223.709L389.496 256.396L222.512 160.337L114.447 223.116L282.779 320.14L225.629 353.346L0.666992 223.116L82.2353 175.902Z" fill="#EB4545"/>
<path d="M445.915 320.659L223.031 449.332L1.31738 319.493L57.9476 286.806H58.4672L223.031 383.958L332.654 320.659L165.361 223.636L221.992 190.949L445.915 320.659Z" fill="#EB4545"/>
</svg>
